<?xml version="1.0" encoding="UTF-8"?> <svg xmlns="http://www.w3.org/2000/svg" xmlns:xlink="http://www.w3.org/1999/xlink" xmlns:xodm="http://www.corel.com/coreldraw/odm/2003" xmlns:cc="http://creativecommons.org/ns#" xmlns:dc="http://purl.org/dc/elements/1.1/" xmlns:rdf="http://www.w3.org/1999/02/22-rdf-syntax-ns#" xml:space="preserve" width="210mm" height="297mm" version="1.1" style="shape-rendering:geometricPrecision; text-rendering:geometricPrecision; image-rendering:optimizeQuality; fill-rule:evenodd; clip-rule:evenodd" viewBox="1500 10500 18500 8800"> <defs> <style type="text/css"> .fil0 {fill:#002E68} .fil1 {fill:#FAB800} </style> </defs> <g id="Capa_x0020_1"> <metadata id="CorelCorpID_0Corel-Layer"></metadata> <g id="_1608109056032"> <path class="fil0" d="M10351.43 14409.57l0 4118.29 -1094.73 0 0 -3958.14c0.64,-54.36 -10.48,-115.71 -24.15,-180.88 -15.58,-54.99 -54.36,-113.16 -118.25,-173.23 -64.21,-57.53 -157.35,-104.9 -280.05,-149.4 -116.02,-42.27 -283.54,-61.98 -486.02,-61.98 -214.88,0 -389.08,19.71 -513.68,61.98 -130.33,44.82 -228.87,93.13 -297.21,143.99 -70.25,56.59 -108.07,112.21 -127.46,168.8 -21.3,70.88 -31.79,121.74 -31.79,171.01l0 3072.22 -0.32 3.18c-62.57,597.61 -537.49,897.68 -1036.55,902.45l-53.72 0.63 0 -4118.94c0,-87.1 15.89,-192.95 46.73,-327.41 29.88,-152.89 125.56,-290.85 262.24,-428.17 142.41,-142.09 351.25,-258.43 619.54,-356.01 268.28,-94.41 639.56,-144.32 1109.05,-144.32 465.39,0 837.62,49.91 1110.03,144.95 264.47,96.95 469.17,213.93 610.87,355.4 138.9,138.91 225.36,285.13 254.61,430.4 30.84,134.78 50.86,240.3 50.86,325.18zm3015.13 -1255.85l0 812.16 -999.68 -0.01 0 3138.62c0,50.86 10.49,110.62 29.56,179.91 12.4,57.85 49.59,117.61 118.25,178.96 60.07,57.22 153.52,108.08 274.95,152.58 120.47,42.6 283.22,61.99 489.84,61.67l87.09 0 0 850.61 -52.14 0c-469.84,-0.32 -840.79,-50.22 -1110.03,-144.63 -268.28,-97.26 -477.12,-214.25 -619.84,-356.33 -137,-141.13 -231.4,-282.27 -261.6,-429.76 -30.83,-136.36 -46.41,-245.71 -46.41,-325.18l0 -3306.49 -740.95 0 0 -812.16 740.95 -0.01 0 -451.69c2.86,-306.75 181.5,-529.25 393.2,-669.44 213.3,-141.45 459.64,-206.93 630.66,-207.25l14.61 0 51.82 1.91 0.04 1326.52 999.68 0.01zm919.91 5104.92c335.67,235.22 842.06,349.65 1527.08,349.65 353.78,0 612.85,-26.7 871.28,-93.13 252.07,-66.12 460.27,-152.26 631.29,-267.33 166.56,-114.76 290.85,-250.48 368.41,-402.11 80.42,-152.58 116.97,-321.36 116.97,-492.7l0 -294.35 -1017.83 0 0 53.09c-0.95,182.45 -62.94,367.77 -187.22,492.7 -114.43,120.15 -399.24,191.99 -782.92,190.4 -186.91,0 -343.3,-18.76 -466.95,-51.5 -120.48,-35.92 -221.87,-84.55 -286.4,-135.41 -72.16,-57.54 -123.33,-116.67 -148.45,-174.51 -27.65,-62.3 -41.32,-128.1 -41.32,-184.68l0 -238.4c0,-74.07 18.44,-205.98 45.14,-271.78 24.48,-59.76 54.35,-150.99 97.58,-193.9 51.82,-48.32 82.33,-74.7 125.88,-97.91 71.2,-38.14 92.82,-45.45 150.99,-66.43 59.76,-23.52 90.91,-32.74 231.42,-54.67 125.56,-19.07 1273.35,-161.49 1411.04,-203.76 287.35,-86.46 516.22,-241.9 672.61,-454.24 158.93,-214.56 235.22,-527.35 235.22,-788.63l0 -469.17c0,-125.56 -24.48,-261.29 -75.65,-410.69 -57.54,-157.35 -163.71,-291.16 -313.43,-416.09 -153.53,-125.25 -361.73,-226.96 -621.43,-308.34 -263.83,-82.33 -600.46,-121.11 -1016.21,-121.11 -415.46,0 -748.58,38.78 -1011.81,121.11 -260.33,81.38 -468.54,183.09 -621.12,307.38 -150.35,125.87 -256.52,259.7 -313.74,416.09 -55.63,149.72 -80.1,286.08 -80.1,411.64l0 2943.16c-0.66,360.14 168.47,670.39 499.67,905.62zm568.99 -3530.28c0,-248.26 71.2,-437.39 212.97,-571.53 146.22,-133.82 413.86,-200.57 815.38,-200.57 390.34,0 658.63,62.62 803.89,192.63 142.09,126.2 203.44,281.31 203.44,545.15 0,130 -13.35,235.85 -76.93,358.23 -48.64,92.18 -97.9,157.35 -169.74,212.66 -89.64,63.57 -190.73,116.34 -303.25,141.14 -208.2,46.72 -1067.72,87.41 -1185.95,122.69 -54.99,15.9 -117.61,28.29 -184.36,67.71 -66.76,35.6 -99.5,76.92 -115.39,143.36l-0.06 -1011.47zm4575.52 -2902.76c-820.1,80.74 -1029.56,543.56 -1024.51,873.15l0 5829.44 1083.59 0 0 -6708.94 -59.08 6.35zm-15617.08 3610.68c-124.93,19.07 -1272.13,161.16 -1410.39,203.75 -287.68,86.78 -515.9,241.91 -672.3,454.24 -159.25,214.88 -235.53,527.03 -235.53,788.64l0 469.81c0,125.56 24.15,260.97 75.33,410.05 57.85,157.03 164.02,290.85 313.74,416.41 153.53,124.93 361.74,226.65 622.07,308.34 263.2,82.33 599.5,120.79 1015.55,120.79 415.15,0 748.59,-38.46 1011.82,-120.79 260.01,-81.7 467.9,-183.42 621.12,-307.38 150.35,-126.52 255.87,-260.33 313.73,-416.09 55.31,-149.72 79.79,-285.77 79.79,-411.33l0 -2943.16c0.96,-360.46 -168.15,-670.71 -499.36,-906.22 -335.99,-235.22 -842.07,-349.02 -1527.08,-349.65 -353.79,0 -612.85,27.01 -871.28,93.45 -253.03,66.43 -460.92,151.94 -630.98,266.69 -166.25,115.7 -291.16,251.43 -368.72,401.78 -80.42,152.58 -116.66,322.63 -116.66,493.97l0 293.08 1017.84 0 0 -52.77c0.63,-182.14 62.62,-367.45 186.59,-492.06 114.43,-120.48 399.57,-192 783.24,-190.73 187.22,-0.63 342.97,19.07 467.27,51.18 119.52,36.55 221.24,84.24 286.08,135.1 71.52,58.17 123.01,117.6 148.44,174.82 27.66,62.31 41.65,128.42 41.65,184.68l0 239.04c0,73.74 -19.08,205.34 -45.78,271.45 -23.84,59.76 -54.36,150.67 -97.58,194.21 -52.13,47.69 -82.33,74.07 -125.57,97.91 -71.52,37.82 -92.81,44.5 -151.3,65.8 -59.45,23.52 -91.23,33.06 -231.73,54.99zm-819.18 919.33c208.2,-46.41 1067.72,-86.78 1185.95,-122.39 54.99,-15.57 117.3,-28.29 184.36,-68.02 67.08,-35.29 99.5,-76.61 115.08,-143.04l0.05 1011.78c0,247.63 -70.88,436.76 -212.97,571.53 -145.9,133.19 -413.55,199.63 -815.38,199.63 -390.34,0 -657.98,-61.99 -803.89,-192.32 -142.08,-125.88 -203.76,-280.68 -203.76,-544.19 0,-130.33 13.99,-236.49 77.89,-358.24 48.31,-93.13 97.58,-157.98 168.47,-213.29 91.23,-63.26 191.68,-116.66 304.2,-141.45z"></path> <path class="fil1" d="M7650.28 12244.23c-461.15,554.99 -1954.54,258.11 -2100.45,942.18 -0.95,2.2 -4.13,-1157.07 -4.13,-1248.61 0,-507.31 251.11,-762.24 677.06,-816.6 311.16,-40.05 629.03,-37.19 937.68,4.77 270.83,36.24 400.2,128.1 503.51,280.99 193.58,285.77 101.72,699 -13.67,837.27z"></path> </g> </g> </svg> 